<svg xmlns="http://www.w3.org/2000/svg" viewBox="0 0 56.92 38.8"><defs><style>.cls-1{fill:#e3feff;}</style></defs><g id="Capa_2" data-name="Capa 2"><g id="Capa_1-2" data-name="Capa 1"><path class="cls-1" d="M8.66,0H0C1.09,0,2,1.77,2,4H2a2.85,2.85,0,0,0,0,.29v20.3A4.25,4.25,0,0,0,6.23,28.8H8.66a4.25,4.25,0,0,0,4.25-4.25V4.25A4.25,4.25,0,0,0,8.66,0Z"/><path class="cls-1" d="M23.53,0H16.85V4h0a2.85,2.85,0,0,0,0,.29v20.3A4.25,4.25,0,0,0,21.1,28.8h2.43a4.25,4.25,0,0,0,4.25-4.25V4.25A4.25,4.25,0,0,0,23.53,0Z"/><path class="cls-1" d="M42.7,34.84h0c0-.12,0-.24,0-.36V6.6A6.6,6.6,0,0,0,36.53,0V0H29.79c1.09,0,2,1.77,2,4h0c0,.12,0,.24,0,.36V34.48a4.32,4.32,0,0,0,4.32,4.32h8.59C43.58,38.8,42.7,37,42.7,34.84Z"/><circle class="cls-1" cx="51.8" cy="23.69" r="5.12"/></g></g></svg>