<svg xmlns="http://www.w3.org/2000/svg" viewBox="0 0 852.99 251.34"><defs><style>.cls-1{fill:#e3feff;}</style></defs><g id="Capa_2" data-name="Capa 2"><g id="Capa_1-2" data-name="Capa 1"><path class="cls-1" d="M272.52,231.72h3.23a6.33,6.33,0,0,1,4.89,1.93,7.31,7.31,0,0,1,0,9.1,6.23,6.23,0,0,1-4.89,1.95H273v6.64h-3.07V231.72Zm7,6.48a4,4,0,0,0-.88-2.67,3.68,3.68,0,0,0-2.85-1.06H273v7.46h2.75a3.7,3.7,0,0,0,2.85-1A4.06,4.06,0,0,0,279.48,238.2Z"/><path class="cls-1" d="M310.88,251.34h-3.07v-8.46H300v8.46h-3.07V231.72H300v8.38h7.82v-8.38h3.07Z"/><path class="cls-1" d="M332.5,250.57a10,10,0,0,1-5.23-5.23,9.85,9.85,0,0,1-.76-3.81,10,10,0,0,1,.76-3.83,10.27,10.27,0,0,1,2.12-3.12,9.57,9.57,0,0,1,3.11-2.09,9.9,9.9,0,0,1,3.81-.77,9.84,9.84,0,0,1,6.95,2.86,10.18,10.18,0,0,1,2.09,3.12,10,10,0,0,1,.77,3.83,9.86,9.86,0,0,1-.77,3.81,9.61,9.61,0,0,1-2.09,3.12,9.75,9.75,0,0,1-6.95,2.88A9.9,9.9,0,0,1,332.5,250.57Zm-.95-13.8a6.71,6.71,0,1,0,4.76-2A6.7,6.7,0,0,0,331.55,236.77Z"/><path class="cls-1" d="M372.69,234.47h-5.4v16.87H364.2V234.47h-5.39v-2.75h13.88Z"/><path class="cls-1" d="M391.38,250.57a9.56,9.56,0,0,1-3.12-2.11,9.7,9.7,0,0,1-2.12-3.12,9.86,9.86,0,0,1-.77-3.81,10,10,0,0,1,.77-3.83,10.27,10.27,0,0,1,2.12-3.12,9.51,9.51,0,0,1,3.12-2.09,9.77,9.77,0,0,1,3.8-.77,9.74,9.74,0,0,1,9,6,9.85,9.85,0,0,1,.77,3.83,9.84,9.84,0,0,1-2.86,6.93,9.7,9.7,0,0,1-6.95,2.88A9.77,9.77,0,0,1,391.38,250.57Zm-1-13.8a6.71,6.71,0,1,0,4.76-2A6.7,6.7,0,0,0,390.42,236.77Z"/><path class="cls-1" d="M435.76,243.94v5.31l-.69.48-.05,0a.2.2,0,0,1-.11.06s-.05.05-.07.05a.19.19,0,0,1-.11,0,.35.35,0,0,1-.11.08s-.05,0-.08,0-.05,0-.08.06l-.13.05s-.05,0-.08,0a.18.18,0,0,1-.13.06l-.05.05H434l-.14.08-.18.08,0,0a9.78,9.78,0,0,1-3.51.85h-.51a9.48,9.48,0,0,1-3.09-.5h0c-.11,0-.19-.08-.3-.11l-.39-.16a5.25,5.25,0,0,1-1-.47,8.68,8.68,0,0,1-2.17-1.64,9.67,9.67,0,0,1-2.11-3.12,9.21,9.21,0,0,1-.72-2.83c0-.32,0-.66,0-1V241a9.83,9.83,0,0,1,2.88-6.45,9.84,9.84,0,0,1,6.92-2.86h.51a.63.63,0,0,1,.23,0,9.59,9.59,0,0,1,3.31.82,0,0,0,0,0,0,0l.15.08h0v3.62a6.33,6.33,0,0,0-1.32-.85,8.59,8.59,0,0,0-1.22-.45.13.13,0,0,1-.08,0h-.08s0,0-.1,0a.09.09,0,0,1-.06,0c-.1,0-.23,0-.34,0h0l-.11,0h-.05a.22.22,0,0,1-.11,0h-.23s-.06,0-.08,0h-.43a6.6,6.6,0,0,0-3.46,1,.32.32,0,0,1-.13.08,5.88,5.88,0,0,0-1.16,1,3.85,3.85,0,0,0-.35.35,0,0,0,0,1,0,0,4.85,4.85,0,0,0-.35.48l-.05,0-.16.24a.18.18,0,0,0-.05.11,6.22,6.22,0,0,0-.82,2s0,0,0,.06c-.05.26-.1.53-.13.79v.29a1.54,1.54,0,0,0,0,.37,1.5,1.5,0,0,0,0,.35,7.37,7.37,0,0,0,.24,1.48,6.77,6.77,0,0,0,1.72,2.93,6.69,6.69,0,0,0,4.75,2h.19a.12.12,0,0,0,.08,0h.39s0,0,.06,0h.16l.58-.11.05,0a.15.15,0,0,0,.11,0h.08a.08.08,0,0,1,.08,0s.07,0,.1,0a.07.07,0,0,0,.05,0,5.57,5.57,0,0,0,1.09-.42h0v-3.62H429v-2.78h6.77Z"/><path class="cls-1" d="M464.86,251.34H461.4l-4.94-6.64h-2.25v6.64h-3.07V231.72H457a6.23,6.23,0,0,1,4.89,2,7.26,7.26,0,0,1,0,9.07,5.53,5.53,0,0,1-2.27,1.5ZM457,242a3.64,3.64,0,0,0,2.83-1,4.58,4.58,0,0,0,0-5.37,3.59,3.59,0,0,0-2.83-1h-2.75V242Z"/><path class="cls-1" d="M490.48,247.13h-7l-1.66,4.21h-3.39L487,230.83l8.51,20.51h-3.35Zm-1.11-2.74-2.38-6-2.38,6Z"/><path class="cls-1" d="M513,231.72h3.22a6.33,6.33,0,0,1,4.89,1.93,7.31,7.31,0,0,1,0,9.1,6.23,6.23,0,0,1-4.89,1.95h-2.75v6.64h-3.06V231.72Zm6.95,6.48a4,4,0,0,0-.87-2.67,3.72,3.72,0,0,0-2.86-1.06h-2.75v7.46h2.75a3.74,3.74,0,0,0,2.86-1A4.1,4.1,0,0,0,519.93,238.2Z"/><path class="cls-1" d="M551.33,251.34h-3.06v-8.46h-7.83v8.46h-3.06V231.72h3.06v8.38h7.83v-8.38h3.06Z"/><path class="cls-1" d="M576.18,241.08v10.26h-3.06V241.08l-6.9-9.36h3.57l4.86,6.72,4.86-6.72h3.55Z"/><rect class="cls-1" y="14.78" width="30.91" height="116.68"/><path class="cls-1" d="M107.22,55.31c-4.58-7.89-13.41-13.41-26-13.41-21,0-37.69,17-37.69,45.26s16.72,45.41,37.69,45.41c12.46,0,21.44-5.52,26-13.4v12.29h30.9V43h-30.9Zm-16.08,50.3c-8.84,0-16.09-6.63-16.09-18.45,0-12,7.25-18.29,16.09-18.29,8.67,0,16.08,6.46,16.08,18.29C107.22,99.14,99.81,105.61,91.14,105.61Z"/><rect class="cls-1" x="155.77" y="43.01" width="30.9" height="88.46"/><path class="cls-1" d="M171.38,3c-11,0-18.13,7.09-18.13,16.08,0,8.83,7.1,15.77,18.13,15.77,10.88,0,18-6.94,18-15.77C189.36,10.05,182.26,3,171.38,3Z"/><path class="cls-1" d="M263,55.31c-4.57-7.89-13.41-13.41-26-13.41-21,0-37.68,17-37.68,45.26S216,132.57,237,132.57c12.46,0,21.45-5.52,26-13.4v12.29h30.9V43H263Zm-16.08,50.3c-8.84,0-16.09-6.63-16.09-18.45,0-12,7.25-18.29,16.09-18.29,8.67,0,16.08,6.46,16.08,18.29C263,99.14,255.58,105.61,246.91,105.61Z"/><path class="cls-1" d="M521.74,55.34c-4.57-7.89-13.4-13.41-26-13.41-21,0-37.68,17-37.68,45.26s16.71,45.41,37.68,45.41c12.46,0,21.45-5.52,26-13.41v12.3h30.9V43h-30.9Zm-16.08,50.3c-8.83,0-16.08-6.63-16.08-18.45,0-12,7.25-18.29,16.08-18.29,8.67,0,16.08,6.46,16.08,18.29C521.74,99.17,514.33,105.64,505.66,105.64Z"/><path class="cls-1" d="M601.2,58.65V43H570.29v88.45H601.2V92.86c0-13.56,7.09-17.66,19.86-17.66h8.68V42.25C617.91,42.25,607.82,49,601.2,58.65Z"/><path class="cls-1" d="M676.72,98.38V68.74H692.8V43H676.72V21.59H645.66V43H634.78v25.7h10.88V97.91c0,25.38,14.35,33.58,33.9,33.58H693V105.16h-9C678.77,105.16,676.72,103.11,676.72,98.38Z"/><rect class="cls-1" x="710.14" y="43.04" width="31.06" height="88.46"/><polygon class="cls-1" points="709.35 33.32 741.2 23.79 741.2 0 709.35 11.94 709.35 33.32"/><path class="cls-1" d="M819.72,42.25c-12.46,0-21.76,5.83-27,13.4V43H761.85v88.45h30.91V84c0-10.25,5.67-16.24,14.82-16.24,8.83,0,14.51,6,14.51,16.24v47.46H853V79.93C853,56.75,840.22,42.25,819.72,42.25Z"/><path class="cls-1" d="M339.73,43H312.8c3.41,0,6.16,5.51,6.16,12.32H319c0,.3-.05.6-.05.9v63.11a13.23,13.23,0,0,0,13.23,13.23h7.54A13.22,13.22,0,0,0,353,119.34V56.23A13.22,13.22,0,0,0,339.73,43Z"/><path class="cls-1" d="M386,43H365.21V55.33h.05c0,.3-.05.6-.05.9v63.11a13.22,13.22,0,0,0,13.22,13.23H386a13.23,13.23,0,0,0,13.23-13.23V56.23A13.22,13.22,0,0,0,386,43Z"/><path class="cls-1" d="M445.57,151.34h-.05c0-.37.05-.74.05-1.12V63.55a20.52,20.52,0,0,0-19.18-20.47V43h-21c3.4,0,6.16,5.51,6.16,12.32h.06a10.42,10.42,0,0,0-.06,1.13v93.76A13.45,13.45,0,0,0,425,163.66h26.69C448.33,163.66,445.57,158.15,445.57,151.34Z"/></g></g></svg>