<svg xmlns="http://www.w3.org/2000/svg" viewBox="0 0 288.53 52.63"><defs><style>.cls-1{fill:#0f2426;}</style></defs><g id="Capa_2" data-name="Capa 2"><g id="Capa_1-2" data-name="Capa 1"><path class="cls-1" d="M0,4.75H9.94V42.28H0Z"/><path class="cls-1" d="M26.11,13.47c4.06,0,6.9,1.78,8.37,4.32v-4h9.94V42.28H34.48v-4c-1.47,2.54-4.36,4.31-8.37,4.31C19.37,42.63,14,37.1,14,28S19.37,13.47,26.11,13.47Zm3.2,8.68c-2.84,0-5.18,2-5.18,5.88S26.47,34,29.31,34s5.17-2.08,5.17-5.93S32.09,22.15,29.31,22.15Z"/><path class="cls-1" d="M49.28,6.12C49.28,3.23,51.56,1,55.11,1s5.78,2.28,5.78,5.17-2.28,5.07-5.78,5.07S49.28,9,49.28,6.12Zm.81,7.71H60V42.28H50.09Z"/><path class="cls-1" d="M76.2,13.47c4.06,0,6.9,1.78,8.37,4.32v-4h9.94V42.28H84.57v-4c-1.47,2.54-4.36,4.31-8.37,4.31-6.74,0-12.12-5.53-12.12-14.6S69.46,13.47,76.2,13.47Zm3.2,8.68c-2.84,0-5.17,2-5.17,5.88S76.56,34,79.4,34s5.17-2.08,5.17-5.93S82.19,22.15,79.4,22.15Z"/><path class="cls-1" d="M159.41,13.48c4.06,0,6.9,1.78,8.37,4.31V13.84h9.94V42.28h-9.94v-4c-1.47,2.54-4.36,4.31-8.37,4.31-6.74,0-12.12-5.53-12.12-14.6S152.67,13.48,159.41,13.48Zm3.2,8.68c-2.84,0-5.18,2-5.18,5.88S159.77,34,162.61,34s5.17-2.08,5.17-5.93S165.39,22.16,162.61,22.16Z"/><path class="cls-1" d="M193.33,42.28h-9.94V13.84h9.94v5a11.28,11.28,0,0,1,9.18-5.27V24.18h-2.79c-4.11,0-6.39,1.32-6.39,5.68Z"/><path class="cls-1" d="M207.63,22.1h-3.5V13.84h3.5V6.94h10v6.9h5.17V22.1h-5.17v9.54c0,1.52.65,2.18,2.33,2.18h2.89v8.46h-4.31c-6.29,0-10.9-2.63-10.9-10.79Z"/><path class="cls-1" d="M238.35,0V7.65l-10.24,3.07V3.84Zm-10,13.84h10V42.28h-10Z"/><path class="cls-1" d="M264.36,27c0-3.29-1.82-5.22-4.66-5.22s-4.77,1.93-4.77,5.22V42.28H245V13.84h9.94V17.9a10.25,10.25,0,0,1,8.67-4.31c6.59,0,10.7,4.66,10.7,12.11V42.28h-9.94Z"/><rect class="cls-1" x="102.57" y="13.83" width="10.93" height="28.8" rx="4.25"/><rect class="cls-1" x="117.44" y="13.83" width="10.93" height="28.8" rx="4.25"/><path class="cls-1" d="M136.68,13.83h0a6.6,6.6,0,0,1,6.6,6.6V48.31A4.32,4.32,0,0,1,139,52.63h-2.28a4.32,4.32,0,0,1-4.32-4.32V18.15a4.32,4.32,0,0,1,4.32-4.32Z"/><path class="cls-1" d="M145.27,52.63c-1.1,0-2-1.77-2-4v4Z"/><path class="cls-1" d="M130.38,13.83c1.09,0,2,1.77,2,4v-4Z"/><path class="cls-1" d="M100.59,13.83c1.09,0,2,1.77,2,4v-4Z"/><rect class="cls-1" x="132.36" y="13.83" width="4.76" height="3.96"/><rect class="cls-1" x="137.02" y="48.67" width="6.27" height="3.96"/><rect class="cls-1" x="117.44" y="13.83" width="5.32" height="3.96"/><rect class="cls-1" x="102.57" y="13.83" width="5.32" height="3.96"/><circle class="cls-1" cx="283.41" cy="37.52" r="5.12"/></g></g></svg>