<svg xmlns="http://www.w3.org/2000/svg" viewBox="0 0 180.26 52.29"><defs><style>.cls-1{fill:#1d1d1b;}</style></defs><g id="Capa_2" data-name="Capa 2"><g id="Capa_1-2" data-name="Capa 1"><path class="cls-1" d="M19.75,33.89a33.91,33.91,0,0,1-5-2.33c-1.44-.78-2.52-1.32-3.23-1.63a11.71,11.71,0,0,0-2-.66L15.72.44l-1-.06H14.1a15.32,15.32,0,0,0-4.6.74A18.36,18.36,0,0,0,5.11,3.19,13.32,13.32,0,0,0,1.37,6.78a7.19,7.19,0,0,0-1.35,4,3.84,3.84,0,0,0,1,3,4.73,4.73,0,0,0,3.27,1v-.1l-.1-.22a4.18,4.18,0,0,1-.34-1.09A7.34,7.34,0,0,1,3.75,12,9.82,9.82,0,0,1,5.3,6.55,8.74,8.74,0,0,1,9.47,3.18L3.47,31a1.15,1.15,0,0,1,.37,0H4.4a9.86,9.86,0,0,1,4,.94,31.28,31.28,0,0,1,5.86,4,30.55,30.55,0,0,0,4.9,3.39,7.12,7.12,0,0,0,3.07.78A3.22,3.22,0,0,0,25,38.4a10.53,10.53,0,0,0,1.45-4.59,8.85,8.85,0,0,1-3.37.64A10.52,10.52,0,0,1,19.75,33.89Z"/><path class="cls-1" d="M42.74,7.84A3.08,3.08,0,0,0,45,6.92a3,3,0,0,0,1-2.24h0a3.23,3.23,0,0,0-3.21-3.21,3,3,0,0,0-2.25.94,3.12,3.12,0,0,0-.92,2.27v.05A3.15,3.15,0,0,0,42.74,7.84Z"/><path class="cls-1" d="M69.63,22.87H67.94a7.26,7.26,0,0,1-1.36,2.79,2.41,2.41,0,0,1-1.89,1,1.67,1.67,0,0,1-1.24-.42,1.79,1.79,0,0,1-.4-1.3c0-.21,0-.41,0-.62a3.76,3.76,0,0,1,.12-.67L66.06,10h-5.8l-.42,2.14v-.28A1.72,1.72,0,0,0,59,10.35a4.5,4.5,0,0,0-2.41-.54,7.82,7.82,0,0,0-4.3,1.26,11.61,11.61,0,0,0-3.44,3.64,17.61,17.61,0,0,0-1.88,4.45,17.27,17.27,0,0,0-.68,4.69c0,.13,0,.26,0,.39a6.09,6.09,0,0,1-.91,1.18,3,3,0,0,1-2.12,1A1.91,1.91,0,0,1,42,26.08a1.49,1.49,0,0,1-.38-1.14c0-.21,0-.41,0-.62a4.22,4.22,0,0,0,.12-.67L44.59,10H38.81L36.08,22.89l-.06.35a7.36,7.36,0,0,1-1.26,2.42,2.45,2.45,0,0,1-1.88,1,1.64,1.64,0,0,1-1.25-.42,1.79,1.79,0,0,1-.4-1.3c0-.21,0-.41,0-.62s.07-.43.12-.67L34.26,10h-5.8L28,12.14v-.28a1.72,1.72,0,0,0-.8-1.57,4.5,4.5,0,0,0-2.41-.54A7.79,7.79,0,0,0,20.52,11a11.64,11.64,0,0,0-3.45,3.64,18.6,18.6,0,0,0-2.57,9.14,7.19,7.19,0,0,0,1.42,4.78,4.87,4.87,0,0,0,3.91,1.68,6,6,0,0,0,3.23-.92,9,9,0,0,0,2.75-2.77A4.12,4.12,0,0,0,27,29.29a3.87,3.87,0,0,0,2.75,1,6.81,6.81,0,0,0,4.73-1.86,14.83,14.83,0,0,0,1.39-1.67A5,5,0,0,0,36.92,29a4,4,0,0,0,3.15,1.26,7.32,7.32,0,0,0,5-1.88,12.44,12.44,0,0,0,1.57-1.83,7.31,7.31,0,0,0,1.06,2,4.87,4.87,0,0,0,3.91,1.68,6,6,0,0,0,3.23-.92,9,9,0,0,0,2.75-2.77,4.11,4.11,0,0,0,1.18,2.73,3.87,3.87,0,0,0,2.75,1,6.84,6.84,0,0,0,4.74-1.86A13.35,13.35,0,0,0,69.63,22.87Zm-43.89,0a5,5,0,0,1-1.3,2.53,2.85,2.85,0,0,1-2,1,1.64,1.64,0,0,1-1.56-.78,4.86,4.86,0,0,1-.44-2.35,17.4,17.4,0,0,1,1.7-7.3q1.71-3.69,3.91-3.69a1.6,1.6,0,0,1,1.21.46,1.49,1.49,0,0,1,.4,1.1Zm31.83,0a5,5,0,0,1-1.3,2.53,2.85,2.85,0,0,1-2,1,1.64,1.64,0,0,1-1.56-.78,4.87,4.87,0,0,1-.45-2.35A17.37,17.37,0,0,1,53.92,16q1.71-3.69,3.91-3.69A1.6,1.6,0,0,1,59,12.8a1.5,1.5,0,0,1,.44,1.06Z"/><path class="cls-1" d="M75.17,30.09,81.87,12l-.81,18.07h5.5l7.54-18-2.56,18h5.77L101.53.54H95.75L86.92,21.71,87.84.56a9.83,9.83,0,0,0-1.5-.42A8.82,8.82,0,0,0,84.8,0a12.2,12.2,0,0,0-4.27.8,15.5,15.5,0,0,0-4,2.31,13.49,13.49,0,0,0-3.27,3.63,7.63,7.63,0,0,0-1.19,3.93,3.42,3.42,0,0,0,1.06,2.75,4.9,4.9,0,0,0,3.23.9v-.1s-.1-.11-.1-.22a3.5,3.5,0,0,1-.39-1.08,8,8,0,0,1-.1-1.38,9.58,9.58,0,0,1,1.64-5.66,9.17,9.17,0,0,1,4.74-3.37L72,30.09Z"/><path class="cls-1" d="M130.94,13.56a3.14,3.14,0,0,1,1.28-.28.55.55,0,0,1,.44.18,1.87,1.87,0,0,1,.28.82,2.25,2.25,0,0,0,.54,1.33,1.65,1.65,0,0,0,1.07.32,2.75,2.75,0,0,0,2.08-.84,2.9,2.9,0,0,0,.81-2.09,3.14,3.14,0,0,0-.77-2.15,2.54,2.54,0,0,0-2-.86,4.78,4.78,0,0,0-2.07.5,16.14,16.14,0,0,0-2.79,2l.52-2.49h-5.77l-3.08,14.39a7.6,7.6,0,0,1-.81,1.27,2.45,2.45,0,0,1-1.88,1,1.64,1.64,0,0,1-1.25-.42,1.85,1.85,0,0,1-.4-1.3c0-.21,0-.41,0-.62a4.22,4.22,0,0,0,.12-.67L120.1,10h-5.77l-.45,2.13v-.28a1.71,1.71,0,0,0-.88-1.55,4.5,4.5,0,0,0-2.41-.54A7.79,7.79,0,0,0,106.3,11a11.64,11.64,0,0,0-3.45,3.64A18.39,18.39,0,0,0,101,19.12a17.72,17.72,0,0,0-.68,4.69,7.2,7.2,0,0,0,1.43,4.78,4.87,4.87,0,0,0,3.91,1.68,6,6,0,0,0,3.23-.92,9.2,9.2,0,0,0,2.75-2.77,4.11,4.11,0,0,0,1.18,2.73,3.87,3.87,0,0,0,2.75,1,6.81,6.81,0,0,0,4.73-1.86c.16-.16.3-.33.45-.49l-.45,2.11h5.82l3.18-15.24A7.43,7.43,0,0,1,130.94,13.56Zm-19.36,9.37a5,5,0,0,1-1.31,2.53,2.85,2.85,0,0,1-2,1,1.65,1.65,0,0,1-1.57-.78,5.13,5.13,0,0,1-.44-2.35A17.26,17.26,0,0,1,108,16c1.13-2.46,2.44-3.69,3.91-3.69a1.53,1.53,0,0,1,1.2.46,1.5,1.5,0,0,1,.44,1.06Z"/><polygon class="cls-1" points="160.35 0 156.13 0 152.49 7.58 155.49 7.58 160.35 0"/><path class="cls-1" d="M177.15,28.46a14.64,14.64,0,0,0,3.11-5.58H178.6A9,9,0,0,1,177,25.73a2.41,2.41,0,0,1-1.73.68A1.6,1.6,0,0,1,174,26a1.74,1.74,0,0,1-.4-1.26,7.43,7.43,0,0,1,.16-1.41c.1-.56.33-1.52.68-2.89.43-1.73.72-3,.86-3.87a12.3,12.3,0,0,0,.22-2.18A4.55,4.55,0,0,0,174.39,11a4.47,4.47,0,0,0-3.29-1.16,5.84,5.84,0,0,0-2.53.56,7.11,7.11,0,0,0-2.16,1.69l.44-2.09h-5.78l-2.81,13.26a6,6,0,0,1-1.34,2.16,3,3,0,0,1-2.13,1,1.89,1.89,0,0,1-1.26-.34,1.46,1.46,0,0,1-.39-1.14c0-.21,0-.41,0-.62a4.22,4.22,0,0,0,.12-.67L156.13,10h-5.77l-2.73,12.89s0,.07,0,.1a5.9,5.9,0,0,1-1.43,2.39,3,3,0,0,1-2.12,1,1.91,1.91,0,0,1-1.27-.34,1.49,1.49,0,0,1-.38-1.14c0-.21,0-.41,0-.62s.07-.43.12-.67l2.57-12h2.41l.32-1.61h-2.41l1.36-6.34-5.93.81L139.64,10h-1.32L138,11.56h1.32l-2.41,11.27c-.1.51-.18,1-.24,1.43a11.69,11.69,0,0,0-.08,1.18A5.07,5.07,0,0,0,137.75,29a4,4,0,0,0,3.15,1.26,7.32,7.32,0,0,0,5-1.88,12.25,12.25,0,0,0,1.5-1.72A5.09,5.09,0,0,0,148.49,29a4,4,0,0,0,3.15,1.26,7.37,7.37,0,0,0,5-1.88c.25-.23.46-.49.69-.74l-.52,2.44h5.77l2.73-12.88a7.46,7.46,0,0,1,1.35-2.7,2.32,2.32,0,0,1,1.78-1,1.24,1.24,0,0,1,1.08.52,2.57,2.57,0,0,1,.37,1.53,11.94,11.94,0,0,1-.16,1.68c-.11.67-.36,1.71-.73,3.29s-.62,2.73-.74,3.45a11.79,11.79,0,0,0-.17,1.78,4.48,4.48,0,0,0,1.21,3.3,4.76,4.76,0,0,0,3.49,1.22A5.92,5.92,0,0,0,177.15,28.46Z"/><path class="cls-1" d="M31.51,38.36V39H30.05v.35h1.46v8.58h.33V39.34h2.57V39H31.84v-.63a2.44,2.44,0,0,1,.56-1.79,2.86,2.86,0,0,1,2-.56v-.33a3.11,3.11,0,0,0-2.24.66A2.76,2.76,0,0,0,31.51,38.36Z"/><path class="cls-1" d="M42.43,39.43a4.74,4.74,0,0,0-4.47,0A4,4,0,0,0,36.4,41a5.51,5.51,0,0,0,0,4.88A4,4,0,0,0,38,47.49a4.82,4.82,0,0,0,4.47,0A4,4,0,0,0,44,45.9,5.6,5.6,0,0,0,44,41,4,4,0,0,0,42.43,39.43Zm1.22,6.41a3.55,3.55,0,0,1-1.47,1.43,4.16,4.16,0,0,1-2,.47,4.24,4.24,0,0,1-2-.47,3.59,3.59,0,0,1-1.48-1.44,5.32,5.32,0,0,1,0-4.75,3.72,3.72,0,0,1,1.48-1.44,4.36,4.36,0,0,1,2-.47,4.28,4.28,0,0,1,2,.47,3.61,3.61,0,0,1,1.47,1.43,4.65,4.65,0,0,1,.57,2.39A4.58,4.58,0,0,1,43.65,45.84Z"/><path class="cls-1" d="M47.66,36.71h-.33V39H45.87v.33h1.46v6.26a2.66,2.66,0,0,0,.5,1.82,2.24,2.24,0,0,0,1.67.52h1v-.33h-.94a2.75,2.75,0,0,1-1.11-.17,1.14,1.14,0,0,1-.58-.6,3.35,3.35,0,0,1-.18-1.24V39.32h2.81V39H47.66Z"/><path class="cls-1" d="M58.58,39.43a4.74,4.74,0,0,0-4.47,0A4,4,0,0,0,52.55,41a5.51,5.51,0,0,0,0,4.88,4,4,0,0,0,1.56,1.59,4.82,4.82,0,0,0,4.47,0,4,4,0,0,0,1.56-1.59,5.6,5.6,0,0,0,0-4.88A4,4,0,0,0,58.58,39.43Zm1.22,6.41a3.55,3.55,0,0,1-1.47,1.43,4.19,4.19,0,0,1-2,.47,4.24,4.24,0,0,1-2-.47,3.59,3.59,0,0,1-1.48-1.44,5.32,5.32,0,0,1,0-4.75,3.72,3.72,0,0,1,1.48-1.44,4.36,4.36,0,0,1,2-.47,4.31,4.31,0,0,1,2,.47,3.61,3.61,0,0,1,1.47,1.43,4.65,4.65,0,0,1,.57,2.39A4.58,4.58,0,0,1,59.8,45.84Z"/><path class="cls-1" d="M71.07,41.69a3.81,3.81,0,0,0-1.43-2,4.24,4.24,0,0,0-2.61-.8,4.54,4.54,0,0,0-2.26.56A3.81,3.81,0,0,0,63.23,41a5.69,5.69,0,0,0,0,4.88,3.81,3.81,0,0,0,1.54,1.59A4.53,4.53,0,0,0,67,48a4.24,4.24,0,0,0,2.61-.79,3.82,3.82,0,0,0,1.43-2v3a3.87,3.87,0,0,1-.48,2,3.3,3.3,0,0,1-1.31,1.31,3.69,3.69,0,0,1-1.85.47A4.08,4.08,0,0,1,65,51.29a3.58,3.58,0,0,1-1.35-1.91h-.33a4,4,0,0,0,1.46,2.13,4.44,4.44,0,0,0,2.69.78,4.09,4.09,0,0,0,2-.48,3.65,3.65,0,0,0,1.45-1.39,4.23,4.23,0,0,0,.55-2.16V39h-.32Zm-.52,4a3.88,3.88,0,0,1-1.44,1.51,4.1,4.1,0,0,1-2.08.53,4.24,4.24,0,0,1-2.12-.51,3.51,3.51,0,0,1-1.4-1.48,5.49,5.49,0,0,1,0-4.58,3.54,3.54,0,0,1,1.4-1.49A4.24,4.24,0,0,1,67,39.17a4,4,0,0,1,2.08.54,3.81,3.81,0,0,1,1.44,1.51,5.08,5.08,0,0,1,0,4.48Z"/><path class="cls-1" d="M74.38,41.16V39h-.33v8.93h.33V42.61a3.25,3.25,0,0,1,1-2.64,3.62,3.62,0,0,1,2.39-.81h.15v-.37C75.91,38.79,74.73,39.58,74.38,41.16Z"/><path class="cls-1" d="M87.62,41.72a3.82,3.82,0,0,0-1.43-2,4.19,4.19,0,0,0-2.61-.81,4.6,4.6,0,0,0-2.27.56A3.79,3.79,0,0,0,79.78,41a5.69,5.69,0,0,0,0,4.88,3.79,3.79,0,0,0,1.53,1.59,4.6,4.6,0,0,0,2.27.55,4.24,4.24,0,0,0,2.61-.8,3.88,3.88,0,0,0,1.43-2.05v2.73h.31V39h-.31Zm-.52,4a3.88,3.88,0,0,1-1.44,1.51,4.12,4.12,0,0,1-2.08.53,4.28,4.28,0,0,1-2.13-.51,3.49,3.49,0,0,1-1.39-1.48,5.49,5.49,0,0,1,0-4.58,3.52,3.52,0,0,1,1.39-1.49,4.28,4.28,0,0,1,2.13-.51,4,4,0,0,1,2.08.54,3.81,3.81,0,0,1,1.44,1.51,5.08,5.08,0,0,1,0,4.48Z"/><path class="cls-1" d="M91.13,38.36V39H89.67v.35h1.46v8.58h.33V39.34H94V39H91.46v-.63A2.4,2.4,0,0,1,92,36.57,2.81,2.81,0,0,1,94,36v-.33a3.08,3.08,0,0,0-2.23.66A2.76,2.76,0,0,0,91.13,38.36Z"/><rect class="cls-1" x="96.01" y="38.99" width="0.33" height="8.94"/><polygon class="cls-1" points="94.4 38.23 97.5 36.08 97.5 35.68 94.4 37.9 94.4 38.23"/><path class="cls-1" d="M107.13,41.72a3.84,3.84,0,0,0-1.44-2,4.18,4.18,0,0,0-2.6-.81,4.57,4.57,0,0,0-2.27.56A3.87,3.87,0,0,0,99.28,41a5.78,5.78,0,0,0,0,4.88,3.87,3.87,0,0,0,1.54,1.59,4.57,4.57,0,0,0,2.27.55,4.23,4.23,0,0,0,2.6-.8,3.9,3.9,0,0,0,1.44-2.05v2.73h.31V39h-.31Zm-.53,4a3.74,3.74,0,0,1-1.44,1.51,4.09,4.09,0,0,1-2.07.53,4.25,4.25,0,0,1-2.13-.51,3.58,3.58,0,0,1-1.4-1.48,5.6,5.6,0,0,1,0-4.58,3.6,3.6,0,0,1,1.4-1.49,4.25,4.25,0,0,1,2.13-.51,4,4,0,0,1,2.07.54,3.68,3.68,0,0,1,1.44,1.51,5,5,0,0,1,0,4.48Z"/><polygon class="cls-1" points="117.98 47.58 114.31 38.99 113.98 38.99 117.81 47.98 116.19 52.13 116.54 52.13 121.64 38.99 121.31 38.99 117.98 47.58"/><path class="cls-1" d="M136.15,41.72a3.82,3.82,0,0,0-1.43-2,4.19,4.19,0,0,0-2.61-.81,4.6,4.6,0,0,0-2.27.56A3.79,3.79,0,0,0,128.31,41a5.69,5.69,0,0,0,0,4.88,3.79,3.79,0,0,0,1.53,1.59,4.6,4.6,0,0,0,2.27.55,4.24,4.24,0,0,0,2.61-.8,3.87,3.87,0,0,0,1.43-2.06v2.74h.31V35.68h-.31Zm-.52,4a3.88,3.88,0,0,1-1.44,1.51,4.12,4.12,0,0,1-2.08.53,4.21,4.21,0,0,1-2.12-.51,3.45,3.45,0,0,1-1.4-1.48,5.49,5.49,0,0,1,0-4.58,3.48,3.48,0,0,1,1.4-1.49,4.21,4.21,0,0,1,2.12-.51,4,4,0,0,1,2.08.54,3.81,3.81,0,0,1,1.44,1.51,5.08,5.08,0,0,1,0,4.48Z"/><rect class="cls-1" x="139.28" y="38.99" width="0.33" height="8.94"/><path class="cls-1" d="M139.44,35.81a.42.42,0,0,0-.31.13.49.49,0,0,0,0,.64.43.43,0,0,0,.62,0,.49.49,0,0,0,0-.64A.42.42,0,0,0,139.44,35.81Z"/><path class="cls-1" d="M146.76,43.89a12.37,12.37,0,0,0-1.48-.48,14,14,0,0,1-1.48-.47,2.21,2.21,0,0,1-.93-.66,1.72,1.72,0,0,1-.38-1.17,1.58,1.58,0,0,1,.32-1,2.15,2.15,0,0,1,.88-.71,2.91,2.91,0,0,1,1.26-.27,2.82,2.82,0,0,1,2,.64,2.29,2.29,0,0,1,.76,1.63H148a2.5,2.5,0,0,0-.9-1.89,3.68,3.68,0,0,0-3.61-.37,2.48,2.48,0,0,0-1,.82,1.9,1.9,0,0,0-.37,1.11,2.05,2.05,0,0,0,.43,1.36,2.63,2.63,0,0,0,1,.76,12.19,12.19,0,0,0,1.58.49,14.05,14.05,0,0,1,1.38.43,2.2,2.2,0,0,1,.85.57,1.41,1.41,0,0,1,.34,1,1.89,1.89,0,0,1-.3,1,2.15,2.15,0,0,1-.85.75,2.79,2.79,0,0,1-1.29.28,3.81,3.81,0,0,1-2.22-.55,2.09,2.09,0,0,1-.89-1.55h-.33a2.4,2.4,0,0,0,1,1.81,4.35,4.35,0,0,0,2.38.59,3,3,0,0,0,1.4-.31,2.49,2.49,0,0,0,1-.84,2.12,2.12,0,0,0,.36-1.2,1.71,1.71,0,0,0-.38-1.15A2.31,2.31,0,0,0,146.76,43.89Z"/><path class="cls-1" d="M158.4,42.71a3.88,3.88,0,0,0-.47-1.85,3.62,3.62,0,0,0-1.4-1.43,4.27,4.27,0,0,0-2.23-.56,4.51,4.51,0,0,0-2.22.55A3.79,3.79,0,0,0,150.55,41a5.12,5.12,0,0,0-.55,2.45,5.18,5.18,0,0,0,.55,2.45,3.82,3.82,0,0,0,1.53,1.58,4.4,4.4,0,0,0,2.22.55,4.35,4.35,0,0,0,2.79-.87,3.53,3.53,0,0,0,1.31-2.27h-.33A3.11,3.11,0,0,1,156.83,47a4.11,4.11,0,0,1-2.53.76,4.24,4.24,0,0,1-2-.45,3.62,3.62,0,0,1-1.45-1.38,4.53,4.53,0,0,1-.57-2.3h8.06C158.4,43.41,158.4,43.11,158.4,42.71Zm-.3.6h-7.77a4.5,4.5,0,0,1,.57-2.3,3.49,3.49,0,0,1,1.45-1.38,4.12,4.12,0,0,1,2-.46,4.17,4.17,0,0,1,1.94.46A3.33,3.33,0,0,1,157.67,41,4.14,4.14,0,0,1,158.1,43.31Z"/><path class="cls-1" d="M163.45,37.14a.79.79,0,0,1,.38.09,2.28,2.28,0,0,1,.41.29,4.2,4.2,0,0,0,.48.33,1.21,1.21,0,0,0,.52.11.91.91,0,0,0,.7-.31,1.22,1.22,0,0,0,.32-.76H166a1,1,0,0,1-.24.57.66.66,0,0,1-.48.21,1,1,0,0,1-.44-.1,2.38,2.38,0,0,1-.42-.3,3,3,0,0,0-.45-.32,1,1,0,0,0-.48-.11.86.86,0,0,0-.67.29,1.43,1.43,0,0,0-.32.8h.29C162.82,37.4,163.05,37.14,163.45,37.14Z"/><path class="cls-1" d="M164.64,38.79a3.9,3.9,0,0,0-2.25.65,3.17,3.17,0,0,0-1.26,1.9V39h-.33v8.93h.33V43.18a4.35,4.35,0,0,1,1-3.06,3.31,3.31,0,0,1,2.55-1A3.17,3.17,0,0,1,167,40a3.73,3.73,0,0,1,.88,2.67v5.24h.31V42.71a3.92,3.92,0,0,0-1-2.94A3.55,3.55,0,0,0,164.64,38.79Z"/><path class="cls-1" d="M177.15,39.43a4.74,4.74,0,0,0-4.47,0A4,4,0,0,0,171.12,41a5.51,5.51,0,0,0,0,4.88,4,4,0,0,0,1.56,1.59,4.82,4.82,0,0,0,4.47,0,3.89,3.89,0,0,0,1.55-1.59,5.51,5.51,0,0,0,0-4.88A3.89,3.89,0,0,0,177.15,39.43Zm1.22,6.41a3.55,3.55,0,0,1-1.47,1.43,4.19,4.19,0,0,1-2,.47,4.24,4.24,0,0,1-2-.47,3.59,3.59,0,0,1-1.48-1.44,5.32,5.32,0,0,1,0-4.75,3.72,3.72,0,0,1,1.48-1.44,4.36,4.36,0,0,1,2-.47,4.31,4.31,0,0,1,2,.47,3.61,3.61,0,0,1,1.47,1.43,4.65,4.65,0,0,1,.57,2.39A4.58,4.58,0,0,1,178.37,45.84Z"/></g></g></svg>